<?xml version="1.0" encoding="utf-8"?>
<!DOCTYPE svg PUBLIC "-//W3C//DTD SVG 1.1//EN" "http://www.w3.org/Graphics/SVG/1.1/DTD/svg11.dtd">
<svg version="1.1" id="Comp" xmlns="http://www.w3.org/2000/svg" xmlns:xlink="http://www.w3.org/1999/xlink" x="0px" y="0px"
	 viewBox="0 0 470 290" enable-background="new 0 0 470 290" xml:space="preserve">
<symbol  id="Dot_Swith" viewBox="-5 -5 10 10">
	<g>
		<path fill="#212121" d="M5,0c0-2.8-2.2-5-5-5s-5,2.2-5,5s2.2,5,5,5S5,2.8,5,0z"/>
	</g>
</symbol>
<symbol  id="Light_Off" viewBox="-34.1 -31.2 53.1 62.7">
	<g>
		<path fill="#EEEEEE" d="M17.6-24.7c0-2.8-2.3-5-5-5h-30.1c-2.8,0-5,2.3-5,5V25c0,2.8,2.3,5,5,5h30.1c2.8,0,5-2.3,5-5V-24.7z"/>
		<path fill="none" stroke="#212121" stroke-width="3" stroke-miterlimit="10" d="M17.6-24.7c0-2.8-2.3-5-5-5h-30.1
			c-2.8,0-5,2.3-5,5V25c0,2.8,2.3,5,5,5h30.1c2.8,0,5-2.3,5-5V-24.7z"/>
	</g>
	<path fill="#333333" stroke="#212121" stroke-width="2" stroke-miterlimit="10" d="M7.6,0.2c0-5.5-4.5-10-10-10s-10,4.5-10,10
		s4.5,10,10,10S7.6,5.7,7.6,0.2z"/>
	
		<line fill="none" stroke="#212121" stroke-width="3" stroke-linecap="round" stroke-linejoin="round" stroke-miterlimit="10" x1="-32.6" y1="0" x2="-22.6" y2="0"/>
	<path display="none" opacity="0.4" fill="#10A337" d="M12.6,0.2c0-8.3-6.7-15-15-15s-15,6.7-15,15s6.7,15,15,15S12.6,8.5,12.6,0.2z
		"/>
</symbol>
<symbol  id="Light_On" viewBox="-34.1 -31 53.1 61.8">
	<g>
		<path fill="#EEEEEE" d="M17.6-24.5c0-2.8-2.3-5-5-5h-30.1c-2.8,0-5,2.3-5,5v48.8c0,2.8,2.3,5,5,5h30.1c2.8,0,5-2.3,5-5V-24.5z"/>
		<path fill="none" stroke="#212121" stroke-width="3" stroke-miterlimit="10" d="M17.6-24.5c0-2.8-2.3-5-5-5h-30.1
			c-2.8,0-5,2.3-5,5v48.8c0,2.8,2.3,5,5,5h30.1c2.8,0,5-2.3,5-5V-24.5z"/>
	</g>
	<path fill="#259B24" stroke="#212121" stroke-width="2" stroke-miterlimit="10" d="M7.6,0.2c0-5.5-4.5-10-10-10s-10,4.5-10,10
		s4.5,10,10,10S7.6,5.7,7.6,0.2z"/>
	<path opacity="0.4" fill="#259B24" d="M12.1,0.2c0-8-6.5-14.5-14.5-14.5S-16.9-7.8-16.9,0.2s6.5,14.5,14.5,14.5S12.1,8.2,12.1,0.2z
		"/>
	
		<line fill="none" stroke="#212121" stroke-width="3" stroke-linecap="round" stroke-linejoin="round" stroke-miterlimit="10" x1="-32.6" y1="0" x2="-22.6" y2="0"/>
</symbol>
<symbol  id="NAND" viewBox="-127 31.2 71.5 43">
	<g>
		<path fill="#EEEEEE" d="M-60.5,49.2c-1.9,0-3.5,1.6-3.5,3.5s1.6,3.5,3.5,3.5s3.5-1.6,3.5-3.5S-58.6,49.2-60.5,49.2z"/>
		<path fill="#212121" d="M-60.5,54.7c1.1,0,2-0.9,2-2s-0.9-2-2-2s-2,0.9-2,2S-61.6,54.7-60.5,54.7 M-60.5,57.7c-2.8,0-5-2.2-5-5
			c0-2.8,2.2-5,5-5c2.8,0,5,2.2,5,5C-55.5,55.4-57.7,57.7-60.5,57.7L-60.5,57.7z"/>
	</g>
	
		<line fill="none" stroke="#212121" stroke-width="3" stroke-linecap="round" stroke-linejoin="round" stroke-miterlimit="10" x1="-125.5" y1="62.7" x2="-115.5" y2="62.7"/>
	
		<line fill="none" stroke="#212121" stroke-width="3" stroke-linecap="round" stroke-linejoin="round" stroke-miterlimit="10" x1="-125.5" y1="42.7" x2="-115.5" y2="42.7"/>
	
		<path fill="#EEEEEE" stroke="#212121" stroke-width="3" stroke-linecap="round" stroke-linejoin="round" stroke-miterlimit="10" d="
		M-85.5,32.7c11,0,20,9,20,20s-9,20-20,20h-30v-40H-85.5z"/>
</symbol>
<symbol  id="NOT_1_" viewBox="-34.5 2.2 40 40">
	<g>
		<polygon fill="#EEEEEE" points="-31.9,40.7 2.9,40.7 -14.5,10.5 		"/>
		<path fill="#212121" d="M0.3,39.2l-14.8-25.6l-14.8,25.6H0.3 M5.5,42.2h-40l20-34.6L5.5,42.2L5.5,42.2z"/>
	</g>
	<g>
		<path fill="#EEEEEE" d="M-14.5,3.7c-1.9,0-3.5,1.6-3.5,3.5s1.6,3.5,3.5,3.5S-11,9.1-11,7.2S-12.6,3.7-14.5,3.7z"/>
		<path fill="#212121" d="M-14.5,9.2c1.1,0,2-0.9,2-2s-0.9-2-2-2s-2,0.9-2,2S-15.6,9.2-14.5,9.2 M-14.5,12.2c-2.8,0-5-2.2-5-5
			c0-2.8,2.2-5,5-5c2.8,0,5,2.2,5,5C-9.5,9.9-11.7,12.2-14.5,12.2L-14.5,12.2z"/>
	</g>
</symbol>
<symbol  id="Switch_Off" viewBox="-34.1 -30.7 54 62.5">
	<g>
		<path fill="#EEEEEE" d="M7.4-24.2c0-2.8-2.3-5-5-5h-30c-2.8,0-5,2.3-5,5v49.5c0,2.8,2.2,5,5,5h30c2.8,0,5-2.3,5-5V-24.2z"/>
		<path fill="none" stroke="#212121" stroke-width="3" stroke-miterlimit="10" d="M7.4-24.2c0-2.8-2.3-5-5-5h-30c-2.8,0-5,2.3-5,5
			v49.5c0,2.8,2.2,5,5,5h30c2.8,0,5-2.3,5-5V-24.2z"/>
	</g>
	<g>
		<path fill="#E51C23" d="M-2.6-17.5c0-1.1-0.9-2-2-2h-16c-1.1,0-2,0.9-2,2v35.3c0,1.1,0.9,2,2,2h16c1.1,0,2-0.9,2-2V-17.5z"/>
		<g opacity="0.15">
			<path fill="#212121" d="M-2.6-17.5c0-1.1-0.9-2-2-2h-16c-1.1,0-2,0.9-2,2v35.3c0,1.1,0.9,2,2,2h16c1.1,0,2-0.9,2-2V-17.5z"/>
			<path fill="#222121" d="M-2.7-17.5c0-1.1-0.9-2-2-2h-16c-1.1,0-2,0.9-2,2v35.2c0,1.1,0.9,2,2,2h16c1.1,0,2-0.9,2-2V-17.5z"/>
			<path fill="#232121" d="M-2.7-17.5c0-1.1-0.9-2-2-2h-15.9c-1.1,0-2,0.9-2,2v35.2c0,1.1,0.9,2,2,2h15.9c1.1,0,2-0.9,2-2V-17.5z"/>
			<path fill="#242020" d="M-2.7-17.4c0-1.1-0.9-2-2-2h-15.9c-1.1,0-2,0.9-2,2v35.1c0,1.1,0.9,2,2,2h15.9c1.1,0,2-0.9,2-2V-17.4z"/>
			<path fill="#252020" d="M-2.7-17.4c0-1.1-0.9-2-2-2h-15.8c-1.1,0-2,0.9-2,2v35.1c0,1.1,0.9,2,2,2h15.8c1.1,0,2-0.9,2-2V-17.4z"/>
			<path fill="#262020" d="M-2.8-17.4c0-1.1-0.9-2-2-2h-15.8c-1.1,0-2,0.9-2,2v35c0,1.1,0.9,2,2,2h15.8c1.1,0,2-0.9,2-2V-17.4z"/>
			<path fill="#272020" d="M-2.8-17.4c0-1.1-0.9-2-2-2h-15.7c-1.1,0-2,0.9-2,2v35c0,1.1,0.9,2,2,2h15.7c1.1,0,2-0.9,2-2V-17.4z"/>
			<path fill="#282020" d="M-2.8-17.3c0-1.1-0.9-2-2-2h-15.7c-1.1,0-2,0.9-2,2v34.9c0,1.1,0.9,2,2,2h15.7c1.1,0,2-0.9,2-2V-17.3z"/>
			<path fill="#292020" d="M-2.8-17.3c0-1.1-0.9-2-2-2h-15.6c-1.1,0-2,0.9-2,2v34.9c0,1.1,0.9,2,2,2h15.6c1.1,0,2-0.9,2-2V-17.3z"/>
			<path fill="#2A1F1F" d="M-2.9-17.3c0-1.1-0.9-2-1.9-2h-15.6c-1.1,0-1.9,0.9-1.9,2v34.8c0,1.1,0.9,2,1.9,2h15.6
				c1.1,0,1.9-0.9,1.9-2V-17.3z"/>
			<path fill="#2B1F1F" d="M-2.9-17.3c0-1.1-0.9-2-1.9-2h-15.6c-1.1,0-1.9,0.9-1.9,2v34.8c0,1.1,0.9,2,1.9,2h15.6
				c1.1,0,1.9-0.9,1.9-2V-17.3z"/>
			<path fill="#2C1F1F" d="M-2.9-17.2c0-1.1-0.9-2-1.9-2h-15.5c-1.1,0-1.9,0.9-1.9,2v34.7c0,1.1,0.9,2,1.9,2h15.5
				c1.1,0,1.9-0.9,1.9-2V-17.2z"/>
			<path fill="#2D1F1F" d="M-3-17.2c0-1.1-0.9-2-1.9-2h-15.5c-1.1,0-1.9,0.9-1.9,2v34.7c0,1.1,0.9,2,1.9,2h15.5c1.1,0,1.9-0.9,1.9-2
				V-17.2z"/>
			<path fill="#2E1F1F" d="M-3-17.2c0-1.1-0.9-2-1.9-2h-15.4c-1.1,0-1.9,0.9-1.9,2v34.6c0,1.1,0.9,2,1.9,2h15.4c1.1,0,1.9-0.9,1.9-2
				V-17.2z"/>
			<path fill="#2F1F1F" d="M-3-17.2c0-1.1-0.9-2-1.9-2h-15.4c-1.1,0-1.9,0.9-1.9,2v34.6c0,1.1,0.9,2,1.9,2h15.4c1.1,0,1.9-0.9,1.9-2
				V-17.2z"/>
			<path fill="#301E1E" d="M-3-17.1c0-1.1-0.9-2-1.9-2h-15.3c-1.1,0-1.9,0.9-1.9,2v34.5c0,1.1,0.9,2,1.9,2H-5c1.1,0,1.9-0.9,1.9-2
				V-17.1z"/>
			<path fill="#311E1E" d="M-3.1-17.1c0-1.1-0.9-2-1.9-2h-15.3c-1.1,0-1.9,0.9-1.9,2v34.5c0,1.1,0.9,2,1.9,2H-5c1.1,0,1.9-0.9,1.9-2
				V-17.1z"/>
			<path fill="#321E1E" d="M-3.1-17.1c0-1.1-0.9-2-1.9-2h-15.2c-1,0-1.9,0.9-1.9,2v34.4c0,1.1,0.9,2,1.9,2H-5c1,0,1.9-0.9,1.9-2
				V-17.1z"/>
			<path fill="#331E1E" d="M-3.1-17.1C-3.1-18.1-4-19-5-19h-15.2c-1,0-1.9,0.9-1.9,1.9v34.4c0,1.1,0.9,1.9,1.9,1.9H-5
				c1,0,1.9-0.9,1.9-1.9V-17.1z"/>
			<path fill="#341E1E" d="M-3.2-17c0-1.1-0.9-1.9-1.9-1.9h-15.1c-1,0-1.9,0.9-1.9,1.9v34.3c0,1.1,0.9,1.9,1.9,1.9h15.1
				c1,0,1.9-0.9,1.9-1.9V-17z"/>
			<path fill="#351E1E" d="M-3.2-17c0-1.1-0.8-1.9-1.9-1.9h-15.1c-1,0-1.9,0.9-1.9,1.9v34.3c0,1.1,0.8,1.9,1.9,1.9h15.1
				c1,0,1.9-0.9,1.9-1.9V-17z"/>
			<path fill="#361D1D" d="M-3.2-17c0-1.1-0.8-1.9-1.9-1.9h-15.1c-1,0-1.9,0.9-1.9,1.9v34.2c0,1.1,0.8,1.9,1.9,1.9h15.1
				c1,0,1.9-0.9,1.9-1.9V-17z"/>
			<path fill="#371D1D" d="M-3.2-17c0-1.1-0.8-1.9-1.9-1.9h-15c-1,0-1.9,0.9-1.9,1.9v34.2c0,1.1,0.8,1.9,1.9,1.9h15
				c1,0,1.9-0.9,1.9-1.9V-17z"/>
			<path fill="#381D1D" d="M-3.3-16.9c0-1.1-0.8-1.9-1.9-1.9h-15c-1,0-1.9,0.9-1.9,1.9v34.1c0,1.1,0.8,1.9,1.9,1.9h15
				c1,0,1.9-0.9,1.9-1.9V-16.9z"/>
			<path fill="#391D1D" d="M-3.3-16.9c0-1.1-0.8-1.9-1.9-1.9h-14.9c-1,0-1.9,0.9-1.9,1.9v34.1c0,1.1,0.8,1.9,1.9,1.9h14.9
				c1,0,1.9-0.9,1.9-1.9V-16.9z"/>
			<path fill="#3A1D1D" d="M-3.3-16.9c0-1.1-0.8-1.9-1.9-1.9h-14.9c-1,0-1.9,0.9-1.9,1.9v34c0,1.1,0.8,1.9,1.9,1.9h14.9
				c1,0,1.9-0.9,1.9-1.9V-16.9z"/>
			<path fill="#3B1D1C" d="M-3.4-16.9c0-1.1-0.8-1.9-1.9-1.9H-20c-1,0-1.9,0.9-1.9,1.9v34c0,1.1,0.8,1.9,1.9,1.9h14.8
				c1,0,1.9-0.9,1.9-1.9V-16.9z"/>
			<path fill="#3C1C1C" d="M-3.4-16.8c0-1.1-0.8-1.9-1.8-1.9H-20c-1,0-1.8,0.9-1.8,1.9v33.9c0,1.1,0.8,1.9,1.8,1.9h14.8
				c1,0,1.8-0.9,1.8-1.9V-16.8z"/>
			<path fill="#3D1C1C" d="M-3.4-16.8c0-1.1-0.8-1.9-1.8-1.9H-20c-1,0-1.8,0.9-1.8,1.9V17c0,1.1,0.8,1.9,1.8,1.9h14.7
				c1,0,1.8-0.9,1.8-1.9V-16.8z"/>
			<path fill="#3E1C1C" d="M-3.4-16.8c0-1.1-0.8-1.9-1.8-1.9H-20c-1,0-1.8,0.9-1.8,1.9V17c0,1.1,0.8,1.9,1.8,1.9h14.7
				c1,0,1.8-0.9,1.8-1.9V-16.8z"/>
			<path fill="#3F1C1C" d="M-3.5-16.8c0-1.1-0.8-1.9-1.8-1.9H-20c-1,0-1.8,0.9-1.8,1.9V17c0,1.1,0.8,1.9,1.8,1.9h14.7
				c1,0,1.8-0.9,1.8-1.9V-16.8z"/>
			<path fill="#401C1C" d="M-3.5-16.7c0-1.1-0.8-1.9-1.8-1.9h-14.6c-1,0-1.8,0.9-1.8,1.9V17c0,1.1,0.8,1.9,1.8,1.9h14.6
				c1,0,1.8-0.9,1.8-1.9V-16.7z"/>
			<path fill="#411C1B" d="M-3.5-16.7c0-1.1-0.8-1.9-1.8-1.9h-14.6c-1,0-1.8,0.9-1.8,1.9v33.7c0,1.1,0.8,1.9,1.8,1.9h14.6
				c1,0,1.8-0.9,1.8-1.9V-16.7z"/>
			<path fill="#421B1B" d="M-3.5-16.7c0-1-0.8-1.9-1.8-1.9h-14.5c-1,0-1.8,0.9-1.8,1.9v33.6c0,1,0.8,1.9,1.8,1.9h14.5
				c1,0,1.8-0.9,1.8-1.9V-16.7z"/>
			<path fill="#431B1B" d="M-3.6-16.7c0-1-0.8-1.9-1.8-1.9h-14.5c-1,0-1.8,0.9-1.8,1.9v33.6c0,1,0.8,1.9,1.8,1.9h14.5
				c1,0,1.8-0.9,1.8-1.9V-16.7z"/>
			<path fill="#441B1B" d="M-3.6-16.6c0-1-0.8-1.9-1.8-1.9h-14.4c-1,0-1.8,0.9-1.8,1.9v33.5c0,1,0.8,1.9,1.8,1.9h14.4
				c1,0,1.8-0.9,1.8-1.9V-16.6z"/>
			<path fill="#451B1B" d="M-3.6-16.6c0-1-0.8-1.9-1.8-1.9h-14.4c-1,0-1.8,0.9-1.8,1.9v33.5c0,1,0.8,1.9,1.8,1.9h14.4
				c1,0,1.8-0.9,1.8-1.9V-16.6z"/>
			<path fill="#461B1B" d="M-3.7-16.6c0-1-0.8-1.9-1.8-1.9h-14.3c-1,0-1.8,0.9-1.8,1.9v33.4c0,1,0.8,1.9,1.8,1.9h14.3
				c1,0,1.8-0.9,1.8-1.9V-16.6z"/>
			<path fill="#471B1A" d="M-3.7-16.6c0-1-0.8-1.9-1.8-1.9h-14.3c-1,0-1.8,0.9-1.8,1.9v33.4c0,1,0.8,1.9,1.8,1.9h14.3
				c1,0,1.8-0.9,1.8-1.9V-16.6z"/>
			<path fill="#481A1A" d="M-3.7-16.5c0-1-0.8-1.9-1.8-1.9h-14.3c-1,0-1.8,0.9-1.8,1.9v33.3c0,1,0.8,1.9,1.8,1.9h14.3
				c1,0,1.8-0.9,1.8-1.9V-16.5z"/>
			<path fill="#491A1A" d="M-3.7-16.5c0-1-0.8-1.9-1.8-1.9h-14.2c-1,0-1.8,0.8-1.8,1.9v33.3c0,1,0.8,1.9,1.8,1.9h14.2
				c1,0,1.8-0.8,1.8-1.9V-16.5z"/>
			<path fill="#4A1A1A" d="M-3.8-16.5c0-1-0.8-1.9-1.8-1.9h-14.2c-1,0-1.8,0.8-1.8,1.9v33.2c0,1,0.8,1.9,1.8,1.9h14.2
				c1,0,1.8-0.8,1.8-1.9V-16.5z"/>
			<path fill="#4B1A1A" d="M-3.8-16.5c0-1-0.8-1.9-1.8-1.9h-14.1c-1,0-1.8,0.8-1.8,1.9v33.2c0,1,0.8,1.9,1.8,1.9h14.1
				c1,0,1.8-0.8,1.8-1.9V-16.5z"/>
			<path fill="#4C1A19" d="M-3.8-16.4c0-1-0.8-1.9-1.8-1.9h-14.1c-1,0-1.8,0.8-1.8,1.9v33.1c0,1,0.8,1.9,1.8,1.9h14.1
				c1,0,1.8-0.8,1.8-1.9V-16.4z"/>
			<path fill="#4D1A19" d="M-3.9-16.4c0-1-0.8-1.9-1.8-1.9h-14c-1,0-1.8,0.8-1.8,1.9v33.1c0,1,0.8,1.9,1.8,1.9h14
				c1,0,1.8-0.8,1.8-1.9V-16.4z"/>
			<path fill="#4E1919" d="M-3.9-16.4c0-1-0.8-1.9-1.7-1.9h-14c-1,0-1.7,0.8-1.7,1.9v33c0,1,0.8,1.9,1.7,1.9h14c1,0,1.7-0.8,1.7-1.9
				V-16.4z"/>
			<path fill="#4F1919" d="M-3.9-16.4c0-1-0.8-1.9-1.7-1.9h-13.9c-1,0-1.7,0.8-1.7,1.9v33c0,1,0.8,1.9,1.7,1.9h13.9
				c1,0,1.7-0.8,1.7-1.9V-16.4z"/>
			<path fill="#501919" d="M-3.9-16.3c0-1-0.8-1.9-1.7-1.9h-13.9c-1,0-1.7,0.8-1.7,1.9v32.9c0,1,0.8,1.9,1.7,1.9h13.9
				c1,0,1.7-0.8,1.7-1.9V-16.3z"/>
			<path fill="#511919" d="M-4-16.3c0-1-0.8-1.9-1.7-1.9h-13.9c-1,0-1.7,0.8-1.7,1.9v32.9c0,1,0.8,1.9,1.7,1.9h13.9
				c1,0,1.7-0.8,1.7-1.9V-16.3z"/>
			<path fill="#521918" d="M-4-16.3c0-1-0.8-1.9-1.7-1.9h-13.8c-0.9,0-1.7,0.8-1.7,1.9v32.8c0,1,0.8,1.9,1.7,1.9h13.8
				c0.9,0,1.7-0.8,1.7-1.9V-16.3z"/>
			<path fill="#531918" d="M-4-16.3c0-1-0.8-1.9-1.7-1.9h-13.8c-0.9,0-1.7,0.8-1.7,1.9v32.8c0,1,0.8,1.9,1.7,1.9h13.8
				c0.9,0,1.7-0.8,1.7-1.9V-16.3z"/>
			<path fill="#541818" d="M-4.1-16.2c0-1-0.8-1.9-1.7-1.9h-13.7c-0.9,0-1.7,0.8-1.7,1.9v32.7c0,1,0.8,1.9,1.7,1.9h13.7
				c0.9,0,1.7-0.8,1.7-1.9V-16.2z"/>
			<path fill="#551818" d="M-4.1-16.2c0-1-0.8-1.9-1.7-1.9h-13.7c-0.9,0-1.7,0.8-1.7,1.9v32.7c0,1,0.8,1.9,1.7,1.9h13.7
				c0.9,0,1.7-0.8,1.7-1.9V-16.2z"/>
			<path fill="#561818" d="M-4.1-16.2c0-1-0.8-1.9-1.7-1.9h-13.6c-0.9,0-1.7,0.8-1.7,1.9v32.6c0,1,0.8,1.9,1.7,1.9h13.6
				c0.9,0,1.7-0.8,1.7-1.9V-16.2z"/>
			<path fill="#571818" d="M-4.1-16.2c0-1-0.8-1.8-1.7-1.8h-13.6c-0.9,0-1.7,0.8-1.7,1.8v32.6c0,1,0.8,1.8,1.7,1.8h13.6
				c0.9,0,1.7-0.8,1.7-1.8V-16.2z"/>
			<path fill="#581817" d="M-4.2-16.1c0-1-0.8-1.8-1.7-1.8h-13.5c-0.9,0-1.7,0.8-1.7,1.8v32.5c0,1,0.8,1.8,1.7,1.8h13.5
				c0.9,0,1.7-0.8,1.7-1.8V-16.1z"/>
			<path fill="#591817" d="M-4.2-16.1c0-1-0.8-1.8-1.7-1.8h-13.5c-0.9,0-1.7,0.8-1.7,1.8v32.5c0,1,0.8,1.8,1.7,1.8h13.5
				c0.9,0,1.7-0.8,1.7-1.8V-16.1z"/>
			<path fill="#5A1717" d="M-4.2-16.1c0-1-0.8-1.8-1.7-1.8h-13.4c-0.9,0-1.7,0.8-1.7,1.8v32.4c0,1,0.8,1.8,1.7,1.8h13.4
				c0.9,0,1.7-0.8,1.7-1.8V-16.1z"/>
			<path fill="#5B1717" d="M-4.2-16.1c0-1-0.8-1.8-1.7-1.8h-13.4c-0.9,0-1.7,0.8-1.7,1.8v32.4c0,1,0.8,1.8,1.7,1.8h13.4
				c0.9,0,1.7-0.8,1.7-1.8V-16.1z"/>
			<path fill="#5C1717" d="M-4.3-16c0-1-0.8-1.8-1.7-1.8h-13.4c-0.9,0-1.7,0.8-1.7,1.8v32.3c0,1,0.8,1.8,1.7,1.8h13.4
				c0.9,0,1.7-0.8,1.7-1.8V-16z"/>
			<path fill="#5D1717" d="M-4.3-16c0-1-0.7-1.8-1.7-1.8h-13.3c-0.9,0-1.7,0.8-1.7,1.8v32.3c0,1,0.7,1.8,1.7,1.8H-6
				c0.9,0,1.7-0.8,1.7-1.8V-16z"/>
			<path fill="#5E1716" d="M-4.3-16c0-1-0.7-1.8-1.7-1.8h-13.3c-0.9,0-1.7,0.8-1.7,1.8v32.2c0,1,0.7,1.8,1.7,1.8H-6
				c0.9,0,1.7-0.8,1.7-1.8V-16z"/>
			<path fill="#5F1716" d="M-4.4-16c0-1-0.7-1.8-1.7-1.8h-13.2c-0.9,0-1.7,0.8-1.7,1.8v32.2c0,1,0.7,1.8,1.7,1.8H-6
				c0.9,0,1.7-0.8,1.7-1.8V-16z"/>
			<path fill="#601616" d="M-4.4-15.9c0-1-0.7-1.8-1.6-1.8h-13.2c-0.9,0-1.6,0.8-1.6,1.8v32.1c0,1,0.7,1.8,1.6,1.8H-6
				c0.9,0,1.6-0.8,1.6-1.8V-15.9z"/>
			<path fill="#611616" d="M-4.4-15.9c0-1-0.7-1.8-1.6-1.8h-13.1c-0.9,0-1.6,0.8-1.6,1.8v32.1c0,1,0.7,1.8,1.6,1.8h13.1
				c0.9,0,1.6-0.8,1.6-1.8V-15.9z"/>
			<path fill="#621616" d="M-4.4-15.9c0-1-0.7-1.8-1.6-1.8h-13.1c-0.9,0-1.6,0.8-1.6,1.8v32c0,1,0.7,1.8,1.6,1.8h13.1
				c0.9,0,1.6-0.8,1.6-1.8V-15.9z"/>
			<path fill="#631615" d="M-4.5-15.9c0-1-0.7-1.8-1.6-1.8h-13c-0.9,0-1.6,0.8-1.6,1.8v32c0,1,0.7,1.8,1.6,1.8h13
				c0.9,0,1.6-0.8,1.6-1.8V-15.9z"/>
			<path fill="#641615" d="M-4.5-15.8c0-1-0.7-1.8-1.6-1.8h-13c-0.9,0-1.6,0.8-1.6,1.8v31.9c0,1,0.7,1.8,1.6,1.8h13
				c0.9,0,1.6-0.8,1.6-1.8V-15.8z"/>
			<path fill="#651615" d="M-4.5-15.8c0-1-0.7-1.8-1.6-1.8h-13c-0.9,0-1.6,0.8-1.6,1.8V16c0,1,0.7,1.8,1.6,1.8h13
				c0.9,0,1.6-0.8,1.6-1.8V-15.8z"/>
			<path fill="#661515" d="M-4.6-15.8c0-1-0.7-1.8-1.6-1.8h-12.9c-0.9,0-1.6,0.8-1.6,1.8V16c0,1,0.7,1.8,1.6,1.8h12.9
				c0.9,0,1.6-0.8,1.6-1.8V-15.8z"/>
			<path fill="#671515" d="M-4.6-15.8c0-1-0.7-1.8-1.6-1.8h-12.9c-0.9,0-1.6,0.8-1.6,1.8V16c0,1,0.7,1.8,1.6,1.8h12.9
				c0.9,0,1.6-0.8,1.6-1.8V-15.8z"/>
			<path fill="#681515" d="M-4.6-15.7c0-1-0.7-1.8-1.6-1.8H-19c-0.9,0-1.6,0.8-1.6,1.8V16c0,1,0.7,1.8,1.6,1.8h12.8
				c0.9,0,1.6-0.8,1.6-1.8V-15.7z"/>
			<path fill="#691514" d="M-4.6-15.7c0-1-0.7-1.8-1.6-1.8H-19c-0.9,0-1.6,0.8-1.6,1.8v31.7c0,1,0.7,1.8,1.6,1.8h12.8
				c0.9,0,1.6-0.8,1.6-1.8V-15.7z"/>
			<path fill="#6A1514" d="M-4.7-15.7c0-1-0.7-1.8-1.6-1.8H-19c-0.9,0-1.6,0.8-1.6,1.8v31.6c0,1,0.7,1.8,1.6,1.8h12.7
				c0.9,0,1.6-0.8,1.6-1.8V-15.7z"/>
			<path fill="#6B1514" d="M-4.7-15.7c0-1-0.7-1.8-1.6-1.8H-19c-0.9,0-1.6,0.8-1.6,1.8v31.6c0,1,0.7,1.8,1.6,1.8h12.7
				c0.9,0,1.6-0.8,1.6-1.8V-15.7z"/>
			<path fill="#6C1414" d="M-4.7-15.6c0-1-0.7-1.8-1.6-1.8h-12.6c-0.9,0-1.6,0.8-1.6,1.8v31.5c0,1,0.7,1.8,1.6,1.8h12.6
				c0.9,0,1.6-0.8,1.6-1.8V-15.6z"/>
			<path fill="#6D1414" d="M-4.8-15.6c0-1-0.7-1.8-1.6-1.8h-12.6c-0.9,0-1.6,0.8-1.6,1.8v31.5c0,1,0.7,1.8,1.6,1.8h12.6
				c0.9,0,1.6-0.8,1.6-1.8V-15.6z"/>
			<path fill="#6E1414" d="M-4.8-15.6c0-1-0.7-1.8-1.6-1.8h-12.6c-0.9,0-1.6,0.8-1.6,1.8v31.4c0,1,0.7,1.8,1.6,1.8h12.6
				c0.9,0,1.6-0.8,1.6-1.8V-15.6z"/>
			<path fill="#6F1413" d="M-4.8-15.6c0-1-0.7-1.8-1.6-1.8h-12.5c-0.9,0-1.6,0.8-1.6,1.8v31.4c0,1,0.7,1.8,1.6,1.8h12.5
				c0.9,0,1.6-0.8,1.6-1.8V-15.6z"/>
			<path fill="#701413" d="M-4.8-15.5c0-1-0.7-1.8-1.6-1.8h-12.5c-0.9,0-1.6,0.8-1.6,1.8v31.3c0,1,0.7,1.8,1.6,1.8h12.5
				c0.9,0,1.6-0.8,1.6-1.8V-15.5z"/>
			<path fill="#711413" d="M-4.9-15.5c0-1-0.7-1.8-1.6-1.8h-12.4c-0.9,0-1.6,0.8-1.6,1.8v31.3c0,1,0.7,1.8,1.6,1.8h12.4
				c0.9,0,1.6-0.8,1.6-1.8V-15.5z"/>
			<path fill="#721313" d="M-4.9-15.5c0-1-0.7-1.8-1.5-1.8h-12.4c-0.9,0-1.5,0.8-1.5,1.8v31.2c0,1,0.7,1.8,1.5,1.8h12.4
				c0.9,0,1.5-0.8,1.5-1.8V-15.5z"/>
			<path fill="#731313" d="M-4.9-15.5c0-1-0.7-1.8-1.5-1.8h-12.3c-0.8,0-1.5,0.8-1.5,1.8v31.2c0,1,0.7,1.8,1.5,1.8h12.3
				c0.8,0,1.5-0.8,1.5-1.8V-15.5z"/>
			<path fill="#741312" d="M-4.9-15.4c0-1-0.7-1.8-1.5-1.8h-12.3c-0.8,0-1.5,0.8-1.5,1.8v31.1c0,1,0.7,1.8,1.5,1.8h12.3
				c0.8,0,1.5-0.8,1.5-1.8V-15.4z"/>
			<path fill="#751312" d="M-5-15.4c0-1-0.7-1.8-1.5-1.8h-12.2c-0.8,0-1.5,0.8-1.5,1.8v31.1c0,1,0.7,1.8,1.5,1.8h12.2
				c0.8,0,1.5-0.8,1.5-1.8V-15.4z"/>
			<path fill="#761312" d="M-5-15.4c0-1-0.7-1.8-1.5-1.8h-12.2c-0.8,0-1.5,0.8-1.5,1.8v31c0,1,0.7,1.8,1.5,1.8h12.2
				c0.8,0,1.5-0.8,1.5-1.8V-15.4z"/>
			<path fill="#771312" d="M-5-15.4c0-1-0.7-1.8-1.5-1.8h-12.2c-0.8,0-1.5,0.8-1.5,1.8v31c0,1,0.7,1.8,1.5,1.8h12.2
				c0.8,0,1.5-0.8,1.5-1.8V-15.4z"/>
			<path fill="#781212" d="M-5.1-15.3c0-1-0.7-1.8-1.5-1.8h-12.1c-0.8,0-1.5,0.8-1.5,1.8v30.9c0,1,0.7,1.8,1.5,1.8h12.1
				c0.8,0,1.5-0.8,1.5-1.8V-15.3z"/>
			<path fill="#791212" d="M-5.1-15.3c0-1-0.7-1.8-1.5-1.8h-12.1c-0.8,0-1.5,0.8-1.5,1.8v30.9c0,1,0.7,1.8,1.5,1.8h12.1
				c0.8,0,1.5-0.8,1.5-1.8V-15.3z"/>
			<path fill="#7A1211" d="M-5.1-15.3c0-1-0.7-1.7-1.5-1.7h-12c-0.8,0-1.5,0.8-1.5,1.7v30.8c0,1,0.7,1.7,1.5,1.7h12
				c0.8,0,1.5-0.8,1.5-1.7V-15.3z"/>
			<path fill="#7B1211" d="M-5.1-15.3c0-1-0.7-1.7-1.5-1.7h-12c-0.8,0-1.5,0.8-1.5,1.7v30.8c0,1,0.7,1.7,1.5,1.7h12
				c0.8,0,1.5-0.8,1.5-1.7V-15.3z"/>
			<path fill="#7C1211" d="M-5.2-15.2c0-1-0.7-1.7-1.5-1.7h-11.9c-0.8,0-1.5,0.8-1.5,1.7v30.7c0,1,0.7,1.7,1.5,1.7h11.9
				c0.8,0,1.5-0.8,1.5-1.7V-15.2z"/>
			<path fill="#7D1211" d="M-5.2-15.2c0-1-0.7-1.7-1.5-1.7h-11.9c-0.8,0-1.5,0.8-1.5,1.7v30.7c0,1,0.7,1.7,1.5,1.7h11.9
				c0.8,0,1.5-0.8,1.5-1.7V-15.2z"/>
			<path fill="#7E1111" d="M-5.2-15.2c0-1-0.7-1.7-1.5-1.7h-11.8c-0.8,0-1.5,0.8-1.5,1.7v30.6c0,1,0.7,1.7,1.5,1.7h11.8
				c0.8,0,1.5-0.8,1.5-1.7V-15.2z"/>
			<path fill="#7F1111" d="M-5.3-15.2c0-1-0.7-1.7-1.5-1.7h-11.8c-0.8,0-1.5,0.8-1.5,1.7v30.6c0,1,0.7,1.7,1.5,1.7h11.8
				c0.8,0,1.5-0.8,1.5-1.7V-15.2z"/>
			<path fill="#801110" d="M-5.3-15.1c0-1-0.7-1.7-1.5-1.7h-11.7c-0.8,0-1.5,0.8-1.5,1.7v30.5c0,1,0.7,1.7,1.5,1.7h11.7
				c0.8,0,1.5-0.8,1.5-1.7V-15.1z"/>
			<path fill="#811110" d="M-5.3-15.1c0-1-0.7-1.7-1.5-1.7h-11.7c-0.8,0-1.5,0.8-1.5,1.7v30.5c0,1,0.7,1.7,1.5,1.7h11.7
				c0.8,0,1.5-0.8,1.5-1.7V-15.1z"/>
			<path fill="#821110" d="M-5.3-15.1c0-0.9-0.7-1.7-1.5-1.7h-11.7c-0.8,0-1.5,0.8-1.5,1.7v30.4c0,0.9,0.7,1.7,1.5,1.7h11.7
				c0.8,0,1.5-0.8,1.5-1.7V-15.1z"/>
			<path fill="#831110" d="M-5.4-15.1c0-0.9-0.7-1.7-1.5-1.7h-11.6c-0.8,0-1.5,0.8-1.5,1.7v30.4c0,0.9,0.7,1.7,1.5,1.7h11.6
				c0.8,0,1.5-0.8,1.5-1.7V-15.1z"/>
			<path fill="#841010" d="M-5.4-15c0-0.9-0.7-1.7-1.4-1.7h-11.6c-0.8,0-1.4,0.8-1.4,1.7v30.3c0,0.9,0.7,1.7,1.4,1.7h11.6
				c0.8,0,1.4-0.8,1.4-1.7V-15z"/>
			<path fill="#851010" d="M-5.4-15c0-0.9-0.6-1.7-1.4-1.7h-11.5c-0.8,0-1.4,0.8-1.4,1.7v30.3c0,0.9,0.6,1.7,1.4,1.7h11.5
				c0.8,0,1.4-0.8,1.4-1.7V-15z"/>
			<path fill="#86100F" d="M-5.5-15c0-0.9-0.6-1.7-1.4-1.7h-11.5c-0.8,0-1.4,0.8-1.4,1.7v30.2c0,0.9,0.6,1.7,1.4,1.7h11.5
				c0.8,0,1.4-0.8,1.4-1.7V-15z"/>
			<path fill="#87100F" d="M-5.5-15c0-0.9-0.6-1.7-1.4-1.7h-11.4c-0.8,0-1.4,0.8-1.4,1.7v30.2c0,0.9,0.6,1.7,1.4,1.7h11.4
				c0.8,0,1.4-0.8,1.4-1.7V-15z"/>
			<path fill="#88100F" d="M-5.5-14.9c0-0.9-0.6-1.7-1.4-1.7h-11.4c-0.8,0-1.4,0.8-1.4,1.7v30.1c0,0.9,0.6,1.7,1.4,1.7h11.4
				c0.8,0,1.4-0.8,1.4-1.7V-14.9z"/>
			<path fill="#89100F" d="M-5.5-14.9c0-0.9-0.6-1.7-1.4-1.7h-11.3c-0.8,0-1.4,0.8-1.4,1.7v30.1c0,0.9,0.6,1.7,1.4,1.7H-7
				c0.8,0,1.4-0.8,1.4-1.7V-14.9z"/>
			<path fill="#8A0F0F" d="M-5.6-14.9c0-0.9-0.6-1.7-1.4-1.7h-11.3c-0.8,0-1.4,0.8-1.4,1.7v30c0,0.9,0.6,1.7,1.4,1.7H-7
				c0.8,0,1.4-0.8,1.4-1.7V-14.9z"/>
			<path fill="#8B0F0E" d="M-5.6-14.9c0-0.9-0.6-1.7-1.4-1.7h-11.3c-0.8,0-1.4,0.8-1.4,1.7v30c0,0.9,0.6,1.7,1.4,1.7H-7
				c0.8,0,1.4-0.8,1.4-1.7V-14.9z"/>
			<path fill="#8C0F0E" d="M-5.6-14.8c0-0.9-0.6-1.7-1.4-1.7h-11.2c-0.8,0-1.4,0.8-1.4,1.7v29.9c0,0.9,0.6,1.7,1.4,1.7H-7
				c0.8,0,1.4-0.8,1.4-1.7V-14.8z"/>
			<path fill="#8D0F0E" d="M-5.6-14.8c0-0.9-0.6-1.7-1.4-1.7h-11.2c-0.8,0-1.4,0.8-1.4,1.7v29.9c0,0.9,0.6,1.7,1.4,1.7H-7
				c0.8,0,1.4-0.8,1.4-1.7V-14.8z"/>
			<path fill="#8E0F0E" d="M-5.7-14.8c0-0.9-0.6-1.7-1.4-1.7h-11.1c-0.8,0-1.4,0.8-1.4,1.7V15c0,0.9,0.6,1.7,1.4,1.7h11.1
				c0.8,0,1.4-0.8,1.4-1.7V-14.8z"/>
			<path fill="#8F0F0E" d="M-5.7-14.8c0-0.9-0.6-1.7-1.4-1.7h-11.1c-0.8,0-1.4,0.8-1.4,1.7V15c0,0.9,0.6,1.7,1.4,1.7h11.1
				c0.8,0,1.4-0.8,1.4-1.7V-14.8z"/>
			<path fill="#900E0E" d="M-5.7-14.7c0-0.9-0.6-1.7-1.4-1.7h-11c-0.8,0-1.4,0.8-1.4,1.7V15c0,0.9,0.6,1.7,1.4,1.7h11
				c0.8,0,1.4-0.8,1.4-1.7V-14.7z"/>
			<path fill="#910E0D" d="M-5.8-14.7c0-0.9-0.6-1.7-1.4-1.7h-11c-0.8,0-1.4,0.8-1.4,1.7V15c0,0.9,0.6,1.7,1.4,1.7h11
				c0.8,0,1.4-0.8,1.4-1.7V-14.7z"/>
			<path fill="#920E0D" d="M-5.8-14.7c0-0.9-0.6-1.7-1.4-1.7h-10.9c-0.8,0-1.4,0.8-1.4,1.7v29.6c0,0.9,0.6,1.7,1.4,1.7h10.9
				c0.8,0,1.4-0.8,1.4-1.7V-14.7z"/>
			<path fill="#930E0D" d="M-5.8-14.7c0-0.9-0.6-1.7-1.4-1.7h-10.9c-0.7,0-1.4,0.8-1.4,1.7v29.6c0,0.9,0.6,1.7,1.4,1.7h10.9
				c0.7,0,1.4-0.8,1.4-1.7V-14.7z"/>
			<path fill="#940E0D" d="M-5.8-14.6c0-0.9-0.6-1.7-1.4-1.7h-10.9c-0.7,0-1.4,0.8-1.4,1.7v29.5c0,0.9,0.6,1.7,1.4,1.7h10.9
				c0.7,0,1.4-0.8,1.4-1.7V-14.6z"/>
			<path fill="#950E0D" d="M-5.9-14.6c0-0.9-0.6-1.7-1.4-1.7H-18c-0.7,0-1.4,0.8-1.4,1.7v29.5c0,0.9,0.6,1.7,1.4,1.7h10.8
				c0.7,0,1.4-0.8,1.4-1.7V-14.6z"/>
			<path fill="#960D0D" d="M-5.9-14.6c0-0.9-0.6-1.7-1.3-1.7H-18c-0.7,0-1.3,0.8-1.3,1.7v29.4c0,0.9,0.6,1.7,1.3,1.7h10.8
				c0.7,0,1.3-0.8,1.3-1.7V-14.6z"/>
			<path fill="#970D0C" d="M-5.9-14.6c0-0.9-0.6-1.7-1.3-1.7H-18c-0.7,0-1.3,0.8-1.3,1.7v29.4c0,0.9,0.6,1.7,1.3,1.7h10.7
				c0.7,0,1.3-0.8,1.3-1.7V-14.6z"/>
			<path fill="#980D0C" d="M-6-14.5c0-0.9-0.6-1.7-1.3-1.7H-18c-0.7,0-1.3,0.7-1.3,1.7v29.3c0,0.9,0.6,1.7,1.3,1.7h10.7
				c0.7,0,1.3-0.7,1.3-1.7V-14.5z"/>
			<path fill="#990D0C" d="M-6-14.5c0-0.9-0.6-1.7-1.3-1.7h-10.6c-0.7,0-1.3,0.7-1.3,1.7v29.3c0,0.9,0.6,1.7,1.3,1.7h10.6
				c0.7,0,1.3-0.7,1.3-1.7V-14.5z"/>
			<path fill="#9A0D0C" d="M-6-14.5c0-0.9-0.6-1.7-1.3-1.7h-10.6c-0.7,0-1.3,0.7-1.3,1.7v29.2c0,0.9,0.6,1.7,1.3,1.7h10.6
				c0.7,0,1.3-0.7,1.3-1.7V-14.5z"/>
			<path fill="#9B0D0C" d="M-6-14.5c0-0.9-0.6-1.7-1.3-1.7h-10.5c-0.7,0-1.3,0.7-1.3,1.7v29.2c0,0.9,0.6,1.7,1.3,1.7h10.5
				c0.7,0,1.3-0.7,1.3-1.7V-14.5z"/>
			<path fill="#9C0C0B" d="M-6.1-14.4c0-0.9-0.6-1.7-1.3-1.7h-10.5c-0.7,0-1.3,0.7-1.3,1.7v29.1c0,0.9,0.6,1.7,1.3,1.7h10.5
				c0.7,0,1.3-0.7,1.3-1.7V-14.4z"/>
			<path fill="#9D0C0B" d="M-6.1-14.4c0-0.9-0.6-1.6-1.3-1.6h-10.5c-0.7,0-1.3,0.7-1.3,1.6v29.1c0,0.9,0.6,1.6,1.3,1.6h10.5
				c0.7,0,1.3-0.7,1.3-1.6V-14.4z"/>
			<path fill="#9E0C0B" d="M-6.1-14.4c0-0.9-0.6-1.6-1.3-1.6h-10.4c-0.7,0-1.3,0.7-1.3,1.6v29c0,0.9,0.6,1.6,1.3,1.6h10.4
				c0.7,0,1.3-0.7,1.3-1.6V-14.4z"/>
			<path fill="#9F0C0B" d="M-6.1-14.4c0-0.9-0.6-1.6-1.3-1.6h-10.4c-0.7,0-1.3,0.7-1.3,1.6v29c0,0.9,0.6,1.6,1.3,1.6h10.4
				c0.7,0,1.3-0.7,1.3-1.6V-14.4z"/>
			<path fill="#A00C0B" d="M-6.2-14.3c0-0.9-0.6-1.6-1.3-1.6h-10.3c-0.7,0-1.3,0.7-1.3,1.6v28.9c0,0.9,0.6,1.6,1.3,1.6h10.3
				c0.7,0,1.3-0.7,1.3-1.6V-14.3z"/>
			<path fill="#A10C0B" d="M-6.2-14.3c0-0.9-0.6-1.6-1.3-1.6h-10.3c-0.7,0-1.3,0.7-1.3,1.6v28.9c0,0.9,0.6,1.6,1.3,1.6h10.3
				c0.7,0,1.3-0.7,1.3-1.6V-14.3z"/>
			<path fill="#A20B0A" d="M-6.2-14.3c0-0.9-0.6-1.6-1.3-1.6h-10.2c-0.7,0-1.3,0.7-1.3,1.6v28.8c0,0.9,0.6,1.6,1.3,1.6h10.2
				c0.7,0,1.3-0.7,1.3-1.6V-14.3z"/>
			<path fill="#A30B0A" d="M-6.3-14.3c0-0.9-0.6-1.6-1.3-1.6h-10.2c-0.7,0-1.3,0.7-1.3,1.6v28.8c0,0.9,0.6,1.6,1.3,1.6h10.2
				c0.7,0,1.3-0.7,1.3-1.6V-14.3z"/>
			<path fill="#A40B0A" d="M-6.3-14.2c0-0.9-0.6-1.6-1.3-1.6h-10.1c-0.7,0-1.3,0.7-1.3,1.6v28.7c0,0.9,0.6,1.6,1.3,1.6h10.1
				c0.7,0,1.3-0.7,1.3-1.6V-14.2z"/>
			<path fill="#A50B0A" d="M-6.3-14.2c0-0.9-0.6-1.6-1.3-1.6h-10.1c-0.7,0-1.3,0.7-1.3,1.6v28.7c0,0.9,0.6,1.6,1.3,1.6h10.1
				c0.7,0,1.3-0.7,1.3-1.6V-14.2z"/>
			<path fill="#A60B0A" d="M-6.3-14.2c0-0.9-0.6-1.6-1.3-1.6h-10c-0.7,0-1.3,0.7-1.3,1.6v28.6c0,0.9,0.6,1.6,1.3,1.6h10
				c0.7,0,1.3-0.7,1.3-1.6V-14.2z"/>
			<path fill="#A70B0A" d="M-6.4-14.2c0-0.9-0.6-1.6-1.3-1.6h-10c-0.7,0-1.3,0.7-1.3,1.6v28.6c0,0.9,0.6,1.6,1.3,1.6h10
				c0.7,0,1.3-0.7,1.3-1.6V-14.2z"/>
			<path fill="#A80A09" d="M-6.4-14.1c0-0.9-0.6-1.6-1.2-1.6h-10c-0.7,0-1.2,0.7-1.2,1.6v28.5c0,0.9,0.6,1.6,1.2,1.6h10
				c0.7,0,1.2-0.7,1.2-1.6V-14.1z"/>
			<path fill="#A90A09" d="M-6.4-14.1c0-0.9-0.6-1.6-1.2-1.6h-9.9c-0.7,0-1.2,0.7-1.2,1.6v28.5c0,0.9,0.6,1.6,1.2,1.6h9.9
				c0.7,0,1.2-0.7,1.2-1.6V-14.1z"/>
			<path fill="#AA0A09" d="M-6.5-14.1c0-0.9-0.6-1.6-1.2-1.6h-9.9c-0.7,0-1.2,0.7-1.2,1.6v28.4c0,0.9,0.6,1.6,1.2,1.6h9.9
				c0.7,0,1.2-0.7,1.2-1.6V-14.1z"/>
			<path fill="#AB0A09" d="M-6.5-14.1c0-0.9-0.6-1.6-1.2-1.6h-9.8c-0.7,0-1.2,0.7-1.2,1.6v28.4c0,0.9,0.6,1.6,1.2,1.6h9.8
				c0.7,0,1.2-0.7,1.2-1.6V-14.1z"/>
			<path fill="#AC0A09" d="M-6.5-14c0-0.9-0.6-1.6-1.2-1.6h-9.8c-0.7,0-1.2,0.7-1.2,1.6v28.3c0,0.9,0.6,1.6,1.2,1.6h9.8
				c0.7,0,1.2-0.7,1.2-1.6V-14z"/>
			<path fill="#AD0A09" d="M-6.5-14c0-0.9-0.5-1.6-1.2-1.6h-9.7c-0.7,0-1.2,0.7-1.2,1.6v28.3c0,0.9,0.5,1.6,1.2,1.6h9.7
				c0.7,0,1.2-0.7,1.2-1.6V-14z"/>
			<path fill="#AE0908" d="M-6.6-14c0-0.9-0.5-1.6-1.2-1.6h-9.7c-0.7,0-1.2,0.7-1.2,1.6v28.2c0,0.9,0.5,1.6,1.2,1.6h9.7
				c0.7,0,1.2-0.7,1.2-1.6V-14z"/>
			<path fill="#AF0908" d="M-6.6-14c0-0.9-0.5-1.6-1.2-1.6h-9.6c-0.7,0-1.2,0.7-1.2,1.6v28.2c0,0.9,0.5,1.6,1.2,1.6h9.6
				c0.7,0,1.2-0.7,1.2-1.6V-14z"/>
			<path fill="#B00908" d="M-6.6-14c0-0.9-0.5-1.6-1.2-1.6h-9.6c-0.7,0-1.2,0.7-1.2,1.6v28.1c0,0.9,0.5,1.6,1.2,1.6h9.6
				c0.7,0,1.2-0.7,1.2-1.6V-14z"/>
		</g>
		<path fill="none" stroke="#212121" stroke-width="2" stroke-miterlimit="10" d="M-2.6-17.5c0-1.1-0.9-2-2-2h-16c-1.1,0-2,0.9-2,2
			v35.3c0,1.1,0.9,2,2,2h16c1.1,0,2-0.9,2-2V-17.5z"/>
	</g>
	<g id="switch_4_">
		<g>
			<path fill="#4D4D4D" d="M-2.6,1.7c0-1.1-0.9-2-2-2h-16c-1.1,0-2,0.9-2,2v16c0,1.1,0.9,2,2,2h16c1.1,0,2-0.9,2-2V1.7z"/>
			<path fill="none" stroke="#212121" stroke-width="2" stroke-miterlimit="10" d="M-2.6,1.7c0-1.1-0.9-2-2-2h-16c-1.1,0-2,0.9-2,2
				v16c0,1.1,0.9,2,2,2h16c1.1,0,2-0.9,2-2V1.7z"/>
		</g>
		<g>
			<line fill="none" stroke="#212121" stroke-width="2" stroke-miterlimit="10" x1="-19.4" y1="13.7" x2="-5.9" y2="13.7"/>
			<line fill="none" stroke="#212121" stroke-width="2" stroke-miterlimit="10" x1="-19.4" y1="9.7" x2="-5.9" y2="9.7"/>
			<line fill="none" stroke="#212121" stroke-width="2" stroke-miterlimit="10" x1="-19.4" y1="5.7" x2="-5.9" y2="5.7"/>
		</g>
	</g>
	
		<line fill="none" stroke="#212121" stroke-width="3" stroke-linecap="round" stroke-linejoin="round" stroke-miterlimit="10" x1="7.4" y1="0.8" x2="18.4" y2="0.8"/>
</symbol>
<g id="P_04">
	<path fill="none" stroke="#259B24" stroke-width="3" stroke-miterlimit="10" d="M120,155l0,65c0,2.8,2.3,5,5,5h45"/>
</g>
<g id="P_06">
	<path fill="none" stroke="#212121" stroke-width="2" stroke-miterlimit="10" d="M140,245v-45c0-2.8,2.3-5,5-5l10,0c2.8,0,5-2.3,5-5
		l0-120c0-2.8,2.3-5,5-5h5"/>
</g>
<g id="P_03">
	<line fill="none" stroke="#212121" stroke-width="2" stroke-miterlimit="10" x1="120" y1="65" x2="120" y2="135"/>
</g>
<g id="P_02">
	<path fill="none" stroke="#212121" stroke-width="2" stroke-miterlimit="10" d="M170,45l-45,0c-2.8,0-5,2.2-5,5v15"/>
</g>
<g id="P_09">
	<line fill="none" stroke="#259B24" stroke-width="3" stroke-miterlimit="10" x1="360" y1="95" x2="390" y2="95"/>
</g>
<g id="P_08">
	<line fill="none" stroke="#259B24" stroke-width="3" stroke-miterlimit="10" x1="320" y1="95" x2="360" y2="95"/>
</g>
<g id="P_13">
	<line fill="none" stroke="#212121" stroke-width="2" stroke-miterlimit="10" x1="360" y1="195" x2="390" y2="195"/>
</g>
<g id="P_12">
	<line fill="none" stroke="#212121" stroke-width="2" stroke-miterlimit="10" x1="320" y1="195" x2="360" y2="195"/>
</g>
<g id="P_07">
	<path fill="none" stroke="#259B24" stroke-width="3" stroke-miterlimit="10" d="M260,85c0,0-2.3,0-5,0c-2.7,0-5-2.3-5-5l0-20
		c0-2.8-2.3-5-5-5h-15"/>
</g>
<g id="P_14">
	<path fill="none" stroke="#259B24" stroke-width="3" stroke-miterlimit="10" d="M230,235h15c2.8,0,5-2.3,5-5v-20c0-2.8,2.3-5,5-5h5
		"/>
</g>
<g id="P_01">
	<path fill="none" stroke="#212121" stroke-width="2" stroke-miterlimit="10" d="M80,95h15c2.8,0,5-2.3,5-5V70c0-2.8,2.3-5,5-5h15"
		/>
</g>
<g id="P_15">
	<line fill="none" stroke="#212121" stroke-width="2" stroke-miterlimit="10" x1="140" y1="245" x2="170" y2="245"/>
</g>
<g id="P_05">
	<path fill="none" stroke="#212121" stroke-width="2" stroke-miterlimit="10" d="M80,195h15c2.8,0,5,2.3,5,5v40c0,2.8,2.3,5,5,5h35"
		/>
</g>
<g id="P_10">
	<path fill="none" stroke="#212121" stroke-width="2" stroke-miterlimit="10" d="M360,195v-25c0-2.8-2.1-5.8-4.7-6.7l-100.6-36.6
		c-2.6-0.9-4.7-4-4.7-6.7v-10c0-2.8,2.3-5,5-5h5"/>
</g>
<g id="P_11">
	<path fill="none" stroke="#259B24" stroke-width="3" stroke-miterlimit="10" d="M360,95v25c0,2.8-2.1,5.8-4.7,6.7l-100.6,36.6
		c-2.6,0.9-4.7,4-4.7,6.7v10c0,2.8,2.3,5,5,5h5"/>
</g>
<use xlink:href="#NOT_1_"  width="40" height="40" id="NOT" x="-34.5" y="2.2" transform="matrix(1 0 0 -1 134.5 167.1667)" overflow="visible"/>
<use xlink:href="#Dot_Swith"  width="10" height="10" id="D_S2_2" x="-5" y="-5" transform="matrix(1 0 0 -1 360 195)" overflow="visible"/>
<use xlink:href="#Dot_Swith"  width="10" height="10" id="D_S2_1" x="-5" y="-5" transform="matrix(1 0 0 -1 140 245)" overflow="visible"/>
<use xlink:href="#Dot_Swith"  width="10" height="10" id="D_S1_2" x="-5" y="-5" transform="matrix(1 0 0 -1 360 95)" overflow="visible"/>
<use xlink:href="#Dot_Swith"  width="10" height="10" id="D_S1_1" x="-5" y="-5" transform="matrix(1 0 0 -1 120 65)" overflow="visible"/>
<use xlink:href="#Light_Off"  width="53.1" height="62.7" id="L_S2" x="-34.1" y="-31.2" transform="matrix(1 0 0 -1 414.083 195)" overflow="visible"/>
<use xlink:href="#Light_On"  width="53.1" height="61.8" id="L_S1" x="-34.1" y="-31" transform="matrix(1 0 0 -1 414.083 95)" overflow="visible"/>
<use xlink:href="#NAND"  width="71.5" height="43" id="NAND_S2_2" x="-127" y="31.2" transform="matrix(1 0 0 -1 385.4971 247.667)" overflow="visible"/>
<use xlink:href="#NAND"  width="71.5" height="43" id="NAND_S2_1" x="-127" y="31.2" transform="matrix(1 0 0 -1 295.4971 287.667)" overflow="visible"/>
<use xlink:href="#NAND"  width="71.5" height="43" id="NAND_S1_2" x="-127" y="31.2" transform="matrix(1 0 0 -1 385.4971 147.667)" overflow="visible"/>
<use xlink:href="#NAND"  width="71.5" height="43" id="NAND_S1_1" x="-127" y="31.2" transform="matrix(1 0 0 -1 295.4971 107.667)" overflow="visible"/>
<use xlink:href="#Switch_Off"  width="54" height="62.5" id="S1" x="-34.1" y="-30.7" transform="matrix(1 0 0 -1 71.6252 95.8241)" overflow="visible"/>
<use xlink:href="#Switch_Off"  width="54" height="62.5" id="S2" x="-34.1" y="-30.7" transform="matrix(1 0 0 -1 71.625 195.825)" overflow="visible"/>
</svg>
